<?xml version="1.0" encoding="UTF-8" standalone="no"?>
<!DOCTYPE svg PUBLIC "-//W3C//DTD SVG 1.1//EN"
 "http://www.w3.org/Graphics/SVG/1.1/DTD/svg11.dtd">
<!-- Generated by graphviz version 2.50.0 (20211209.0339)
 -->
<!-- Title: G Pages: 1 -->
<svg width="396pt" height="261pt"
 viewBox="0.00 0.00 396.29 261.00" xmlns="http://www.w3.org/2000/svg" xmlns:xlink="http://www.w3.org/1999/xlink">
<g id="graph0" class="graph" transform="scale(1 1) rotate(0) translate(4 257)">
<title>G</title>
<polygon fill="white" stroke="transparent" points="-4,4 -4,-257 392.29,-257 392.29,4 -4,4"/>
<g id="clust1" class="cluster">
<title>cluster_1</title>
<polygon fill="lightgrey" stroke="lightgrey" points="8,-8 8,-245 91.59,-245 91.59,-8 8,-8"/>
<text text-anchor="middle" x="49.8" y="-229.8" font-family="Times,serif" font-size="14.00">Layer 0</text>
</g>
<g id="clust2" class="cluster">
<title>cluster_2</title>
<polygon fill="lightgrey" stroke="lightgrey" points="111.59,-8 111.59,-245 230.29,-245 230.29,-8 111.59,-8"/>
<text text-anchor="middle" x="170.94" y="-229.8" font-family="Times,serif" font-size="14.00">Layer 1: ReLU</text>
</g>
<g id="clust3" class="cluster">
<title>cluster_3</title>
<polygon fill="lightgrey" stroke="lightgrey" points="250.29,-89 250.29,-164 388.29,-164 388.29,-89 250.29,-89"/>
<text text-anchor="middle" x="319.29" y="-148.8" font-family="Times,serif" font-size="14.00">Layer 2: Sigmoid</text>
</g>
<!-- x1 -->
<g id="node1" class="node">
<title>x1</title>
<ellipse fill="none" stroke="black" cx="49.8" cy="-196" rx="27" ry="18"/>
<text text-anchor="middle" x="49.8" y="-192.3" font-family="Times,serif" font-size="14.00">x1</text>
</g>
<!-- node1 -->
<g id="node5" class="node">
<title>node1</title>
<ellipse fill="none" stroke="black" cx="170.44" cy="-196" rx="38.99" ry="18"/>
<text text-anchor="middle" x="170.44" y="-192.3" font-family="Times,serif" font-size="14.00">node1</text>
</g>
<!-- x1&#45;&gt;node1 -->
<g id="edge1" class="edge">
<title>x1&#45;&gt;node1</title>
<path fill="none" stroke="black" d="M76.83,-196C89.8,-196 105.91,-196 121.04,-196"/>
<polygon fill="black" stroke="black" points="121.3,-199.5 131.3,-196 121.3,-192.5 121.3,-199.5"/>
</g>
<!-- node2 -->
<g id="node6" class="node">
<title>node2</title>
<ellipse fill="none" stroke="black" cx="170.44" cy="-142" rx="38.99" ry="18"/>
<text text-anchor="middle" x="170.44" y="-138.3" font-family="Times,serif" font-size="14.00">node2</text>
</g>
<!-- x1&#45;&gt;node2 -->
<g id="edge5" class="edge">
<title>x1&#45;&gt;node2</title>
<path fill="none" stroke="black" d="M72.56,-186.1C89.34,-178.46 112.95,-167.71 132.66,-158.74"/>
<polygon fill="black" stroke="black" points="134.32,-161.83 141.97,-154.5 131.42,-155.46 134.32,-161.83"/>
</g>
<!-- ... -->
<g id="node7" class="node">
<title>...</title>
<ellipse fill="none" stroke="black" cx="170.44" cy="-88" rx="27" ry="18"/>
<text text-anchor="middle" x="170.44" y="-84.3" font-family="Times,serif" font-size="14.00">...</text>
</g>
<!-- x1&#45;&gt;... -->
<g id="edge9" class="edge">
<title>x1&#45;&gt;...</title>
<path fill="none" stroke="black" d="M66.8,-181.43C87.26,-162.81 122.83,-130.43 146.25,-109.11"/>
<polygon fill="black" stroke="black" points="148.65,-111.65 153.69,-102.33 143.94,-106.48 148.65,-111.65"/>
</g>
<!-- node30 -->
<g id="node8" class="node">
<title>node30</title>
<ellipse fill="none" stroke="black" cx="170.44" cy="-34" rx="44.69" ry="18"/>
<text text-anchor="middle" x="170.44" y="-30.3" font-family="Times,serif" font-size="14.00">node30</text>
</g>
<!-- x1&#45;&gt;node30 -->
<g id="edge13" class="edge">
<title>x1&#45;&gt;node30</title>
<path fill="none" stroke="black" d="M62.61,-179.87C83.16,-151.81 125.67,-93.76 150.42,-59.97"/>
<polygon fill="black" stroke="black" points="153.52,-61.66 156.61,-51.52 147.87,-57.52 153.52,-61.66"/>
</g>
<!-- x2 -->
<g id="node2" class="node">
<title>x2</title>
<ellipse fill="none" stroke="black" cx="49.8" cy="-142" rx="27" ry="18"/>
<text text-anchor="middle" x="49.8" y="-138.3" font-family="Times,serif" font-size="14.00">x2</text>
</g>
<!-- x2&#45;&gt;node1 -->
<g id="edge2" class="edge">
<title>x2&#45;&gt;node1</title>
<path fill="none" stroke="black" d="M72.56,-151.9C89.34,-159.54 112.95,-170.29 132.66,-179.26"/>
<polygon fill="black" stroke="black" points="131.42,-182.54 141.97,-183.5 134.32,-176.17 131.42,-182.54"/>
</g>
<!-- x2&#45;&gt;node2 -->
<g id="edge6" class="edge">
<title>x2&#45;&gt;node2</title>
<path fill="none" stroke="black" d="M76.83,-142C89.8,-142 105.91,-142 121.04,-142"/>
<polygon fill="black" stroke="black" points="121.3,-145.5 131.3,-142 121.3,-138.5 121.3,-145.5"/>
</g>
<!-- x2&#45;&gt;... -->
<g id="edge10" class="edge">
<title>x2&#45;&gt;...</title>
<path fill="none" stroke="black" d="M72.56,-132.1C91.04,-123.68 117.78,-111.51 138.49,-102.09"/>
<polygon fill="black" stroke="black" points="140.17,-105.17 147.82,-97.84 137.27,-98.8 140.17,-105.17"/>
</g>
<!-- x2&#45;&gt;node30 -->
<g id="edge14" class="edge">
<title>x2&#45;&gt;node30</title>
<path fill="none" stroke="black" d="M66.8,-127.43C86.57,-109.43 120.47,-78.57 143.87,-57.28"/>
<polygon fill="black" stroke="black" points="146.33,-59.77 151.37,-50.45 141.62,-54.59 146.33,-59.77"/>
</g>
<!-- .. -->
<g id="node3" class="node">
<title>..</title>
<ellipse fill="none" stroke="black" cx="49.8" cy="-88" rx="27" ry="18"/>
<text text-anchor="middle" x="49.8" y="-84.3" font-family="Times,serif" font-size="14.00">..</text>
</g>
<!-- ..&#45;&gt;node1 -->
<g id="edge3" class="edge">
<title>..&#45;&gt;node1</title>
<path fill="none" stroke="black" d="M66.8,-102.57C86.69,-120.67 120.86,-151.78 144.27,-173.09"/>
<polygon fill="black" stroke="black" points="142.01,-175.77 151.76,-179.91 146.73,-170.59 142.01,-175.77"/>
</g>
<!-- ..&#45;&gt;node2 -->
<g id="edge7" class="edge">
<title>..&#45;&gt;node2</title>
<path fill="none" stroke="black" d="M72.56,-97.9C89.34,-105.54 112.95,-116.29 132.66,-125.26"/>
<polygon fill="black" stroke="black" points="131.42,-128.54 141.97,-129.5 134.32,-122.17 131.42,-128.54"/>
</g>
<!-- ..&#45;&gt;... -->
<g id="edge11" class="edge">
<title>..&#45;&gt;...</title>
<path fill="none" stroke="black" d="M76.83,-88C93.26,-88 114.71,-88 132.83,-88"/>
<polygon fill="black" stroke="black" points="133.05,-91.5 143.05,-88 133.05,-84.5 133.05,-91.5"/>
</g>
<!-- ..&#45;&gt;node30 -->
<g id="edge15" class="edge">
<title>..&#45;&gt;node30</title>
<path fill="none" stroke="black" d="M72.56,-78.1C88.88,-70.66 111.66,-60.3 131.03,-51.48"/>
<polygon fill="black" stroke="black" points="132.57,-54.63 140.22,-47.3 129.67,-48.26 132.57,-54.63"/>
</g>
<!-- x784 -->
<g id="node4" class="node">
<title>x784</title>
<ellipse fill="none" stroke="black" cx="49.8" cy="-34" rx="33.6" ry="18"/>
<text text-anchor="middle" x="49.8" y="-30.3" font-family="Times,serif" font-size="14.00">x784</text>
</g>
<!-- x784&#45;&gt;node1 -->
<g id="edge4" class="edge">
<title>x784&#45;&gt;node1</title>
<path fill="none" stroke="black" d="M63.05,-50.73C83.81,-79.07 126.04,-136.74 150.59,-170.26"/>
<polygon fill="black" stroke="black" points="147.99,-172.63 156.72,-178.63 153.64,-168.5 147.99,-172.63"/>
</g>
<!-- x784&#45;&gt;node2 -->
<g id="edge8" class="edge">
<title>x784&#45;&gt;node2</title>
<path fill="none" stroke="black" d="M67.8,-49.47C87.74,-67.63 121.01,-97.91 144.02,-118.86"/>
<polygon fill="black" stroke="black" points="141.95,-121.71 151.7,-125.85 146.66,-116.53 141.95,-121.71"/>
</g>
<!-- x784&#45;&gt;... -->
<g id="edge12" class="edge">
<title>x784&#45;&gt;...</title>
<path fill="none" stroke="black" d="M75.96,-45.45C94.11,-53.72 118.74,-64.93 138.17,-73.77"/>
<polygon fill="black" stroke="black" points="136.95,-77.06 147.51,-78.02 139.85,-70.69 136.95,-77.06"/>
</g>
<!-- x784&#45;&gt;node30 -->
<g id="edge16" class="edge">
<title>x784&#45;&gt;node30</title>
<path fill="none" stroke="black" d="M83.85,-34C93.61,-34 104.57,-34 115.31,-34"/>
<polygon fill="black" stroke="black" points="115.48,-37.5 125.48,-34 115.48,-30.5 115.48,-37.5"/>
</g>
<!-- y -->
<g id="node9" class="node">
<title>y</title>
<ellipse fill="none" stroke="black" cx="319.29" cy="-115" rx="27" ry="18"/>
<text text-anchor="middle" x="319.29" y="-111.3" font-family="Times,serif" font-size="14.00">y</text>
</g>
<!-- node1&#45;&gt;y -->
<g id="edge17" class="edge">
<title>node1&#45;&gt;y</title>
<path fill="none" stroke="black" d="M196.35,-182.26C221.97,-168.13 261.85,-146.13 288.97,-131.17"/>
<polygon fill="black" stroke="black" points="290.92,-134.09 297.99,-126.19 287.54,-127.96 290.92,-134.09"/>
</g>
<!-- node2&#45;&gt;y -->
<g id="edge18" class="edge">
<title>node2&#45;&gt;y</title>
<path fill="none" stroke="black" d="M206.99,-135.46C230.1,-131.21 260.11,-125.7 283.14,-121.46"/>
<polygon fill="black" stroke="black" points="283.98,-124.87 293.18,-119.62 282.72,-117.98 283.98,-124.87"/>
</g>
<!-- ...&#45;&gt;y -->
<g id="edge19" class="edge">
<title>...&#45;&gt;y</title>
<path fill="none" stroke="black" d="M196.68,-92.64C220.43,-97.01 256.21,-103.59 282.82,-108.48"/>
<polygon fill="black" stroke="black" points="282.41,-111.96 292.88,-110.33 283.68,-105.08 282.41,-111.96"/>
</g>
<!-- node30&#45;&gt;y -->
<g id="edge20" class="edge">
<title>node30&#45;&gt;y</title>
<path fill="none" stroke="black" d="M197.69,-48.48C223.37,-62.65 262.41,-84.18 289.06,-98.88"/>
<polygon fill="black" stroke="black" points="287.48,-102.01 297.93,-103.77 290.86,-95.88 287.48,-102.01"/>
</g>
</g>
</svg>
